<svg xmlns="http://www.w3.org/2000/svg" xmlns:xlink="http://www.w3.org/1999/xlink" width="3779" zoomAndPan="magnify" viewBox="0 0 2835 1417.499962" height="1889" preserveAspectRatio="xMidYMid meet" version="1.0"><defs><g/><clipPath id="3981d3a8cf"><path d="M 226.484375 461.054688 L 1599.964844 461.054688 L 1599.964844 955.769531 L 226.484375 955.769531 Z M 226.484375 461.054688 " clip-rule="nonzero"/></clipPath><clipPath id="ea645eb49d"><path d="M 27.148438 461.054688 L 425.816406 461.054688 L 425.816406 956 L 27.148438 956 Z M 27.148438 461.054688 " clip-rule="nonzero"/></clipPath><clipPath id="3b9d388a79"><path d="M 226.484375 461.054688 C 116.394531 461.054688 27.148438 571.800781 27.148438 708.410156 C 27.148438 845.023438 116.394531 955.769531 226.484375 955.769531 C 336.574219 955.769531 425.816406 845.023438 425.816406 708.410156 C 425.816406 571.800781 336.574219 461.054688 226.484375 461.054688 Z M 226.484375 461.054688 " clip-rule="nonzero"/></clipPath><clipPath id="264b130336"><path d="M 1400.628906 461.054688 L 1799.296875 461.054688 L 1799.296875 956 L 1400.628906 956 Z M 1400.628906 461.054688 " clip-rule="nonzero"/></clipPath><clipPath id="e2b05faccc"><path d="M 1599.964844 461.054688 C 1489.875 461.054688 1400.628906 571.800781 1400.628906 708.410156 C 1400.628906 845.023438 1489.875 955.769531 1599.964844 955.769531 C 1710.054688 955.769531 1799.296875 845.023438 1799.296875 708.410156 C 1799.296875 571.800781 1710.054688 461.054688 1599.964844 461.054688 Z M 1599.964844 461.054688 " clip-rule="nonzero"/></clipPath><clipPath id="0e50871104"><path d="M 1174.5 584.648438 L 1434.394531 584.648438 L 1434.394531 847.800781 L 1174.5 847.800781 Z M 1174.5 584.648438 " clip-rule="nonzero"/></clipPath></defs><g clip-path="url(#3981d3a8cf)"><path fill="#38b6ff" d="M 226.484375 461.054688 L 1600.480469 461.054688 L 1600.480469 955.769531 L 226.484375 955.769531 Z M 226.484375 461.054688 " fill-opacity="1" fill-rule="nonzero"/></g><g clip-path="url(#ea645eb49d)"><g clip-path="url(#3b9d388a79)"><path fill="#38b6ff" d="M 27.148438 461.054688 L 425.816406 461.054688 L 425.816406 956.273438 L 27.148438 956.273438 Z M 27.148438 461.054688 " fill-opacity="1" fill-rule="nonzero"/></g></g><g clip-path="url(#264b130336)"><g clip-path="url(#e2b05faccc)"><path fill="#38b6ff" d="M 1400.628906 461.054688 L 1799.296875 461.054688 L 1799.296875 956.273438 L 1400.628906 956.273438 Z M 1400.628906 461.054688 " fill-opacity="1" fill-rule="nonzero"/></g></g><g fill="#000000" fill-opacity="1"><g transform="translate(200.309948, 829.936062)"><g><path d="M 116.515625 -225.609375 C 132.660156 -225.609375 146.46875 -222.648438 157.9375 -216.734375 C 169.414062 -210.828125 178.085938 -202.546875 183.953125 -191.890625 C 189.816406 -181.242188 192.75 -168.875 192.75 -154.78125 C 192.75 -140.6875 189.816406 -128.335938 183.953125 -117.734375 C 178.085938 -107.140625 169.414062 -98.882812 157.9375 -92.96875 C 146.46875 -87.0625 132.660156 -84.109375 116.515625 -84.109375 L 73.921875 -84.109375 L 73.921875 0 L 29.328125 0 L 29.328125 -225.609375 Z M 110.640625 -119.4375 C 135.441406 -119.4375 147.84375 -131.21875 147.84375 -154.78125 C 147.84375 -178.445312 135.441406 -190.28125 110.640625 -190.28125 L 73.921875 -190.28125 L 73.921875 -119.4375 Z M 110.640625 -119.4375 "/></g></g></g><g fill="#000000" fill-opacity="1"><g transform="translate(406.482082, 829.936062)"><g><path d="M 168.203125 -75.46875 L 58.796875 -75.46875 C 60.023438 -60.644531 64.238281 -49.863281 71.4375 -43.125 C 78.644531 -36.394531 88.472656 -33.03125 100.921875 -33.03125 C 110.691406 -33.03125 118.613281 -34.851562 124.6875 -38.5 C 130.757812 -42.15625 135.644531 -47.6875 139.34375 -55.09375 L 142.59375 -55.09375 L 170.984375 -36.875 C 165.429688 -24.945312 157.046875 -15.28125 145.828125 -7.875 C 134.617188 -0.46875 119.648438 3.234375 100.921875 3.234375 C 83.328125 3.234375 68.125 -0.109375 55.3125 -6.796875 C 42.507812 -13.484375 32.632812 -23.4375 25.6875 -36.65625 C 18.75 -49.875 15.28125 -66 15.28125 -85.03125 C 15.28125 -104.375 18.929688 -120.679688 26.234375 -133.953125 C 33.535156 -147.222656 43.410156 -157.125 55.859375 -163.65625 C 68.304688 -170.1875 82.300781 -173.453125 97.84375 -173.453125 C 121.914062 -173.453125 140.351562 -167.070312 153.15625 -154.3125 C 165.96875 -141.5625 172.375 -122.835938 172.375 -98.140625 C 172.375 -89.191406 172.066406 -82.25 171.453125 -77.3125 Z M 131.484375 -103.078125 C 131.066406 -116.046875 128.054688 -125.488281 122.453125 -131.40625 C 116.847656 -137.320312 108.644531 -140.28125 97.84375 -140.28125 C 76.238281 -140.28125 63.53125 -127.878906 59.71875 -103.078125 Z M 131.484375 -103.078125 "/></g></g></g><g fill="#000000" fill-opacity="1"><g transform="translate(591.512336, 829.936062)"><g><path d="M 24.53125 0 L 24.53125 -170.21875 L 65.578125 -170.21875 L 65.578125 -145.21875 L 68.828125 -144.4375 C 79.421875 -163.78125 96.601562 -173.453125 120.375 -173.453125 C 140.019531 -173.453125 154.445312 -168.101562 163.65625 -157.40625 C 172.863281 -146.707031 177.46875 -131.117188 177.46875 -110.640625 L 177.46875 0 L 134.71875 0 L 134.71875 -105.40625 C 134.71875 -116.71875 132.453125 -124.867188 127.921875 -129.859375 C 123.398438 -134.847656 116.148438 -137.34375 106.171875 -137.34375 C 93.929688 -137.34375 84.390625 -133.378906 77.546875 -125.453125 C 70.703125 -117.535156 67.28125 -105.085938 67.28125 -88.109375 L 67.28125 0 Z M 24.53125 0 "/></g></g></g><g fill="#000000" fill-opacity="1"><g transform="translate(790.89437, 829.936062)"><g><path d="M 88.265625 72.21875 C 60.179688 72.21875 39.453125 68.101562 26.078125 59.875 C 12.703125 51.644531 6.015625 40.175781 6.015625 25.46875 C 6.015625 16.507812 8.867188 9.175781 14.578125 3.46875 C 20.285156 -2.238281 28.492188 -6.070312 39.203125 -8.03125 L 39.203125 -11.265625 C 33.441406 -14.765625 29.300781 -18.648438 26.78125 -22.921875 C 24.257812 -27.191406 23 -32.15625 23 -37.8125 C 23 -51.488281 31.894531 -60.695312 49.6875 -65.4375 L 49.6875 -68.671875 C 40.53125 -73.921875 33.632812 -80.425781 29 -88.1875 C 24.375 -95.957031 22.0625 -105.347656 22.0625 -116.359375 C 22.0625 -127.671875 24.660156 -137.625 29.859375 -146.21875 C 35.054688 -154.8125 42.671875 -161.5 52.703125 -166.28125 C 62.734375 -171.0625 74.742188 -173.453125 88.734375 -173.453125 C 102.929688 -173.453125 114.25 -170.984375 122.6875 -166.046875 C 127.925781 -173.660156 130.960938 -182.457031 131.796875 -192.4375 L 135.03125 -194.4375 L 165.734375 -186.875 C 164.804688 -178.75 162.441406 -171.929688 158.640625 -166.421875 C 154.835938 -160.921875 148.921875 -156.015625 140.890625 -151.703125 L 140.890625 -148.296875 C 150.460938 -139.859375 155.25 -128.082031 155.25 -112.96875 C 155.25 -102.46875 152.625 -93.050781 147.375 -84.71875 C 142.125 -76.382812 134.484375 -69.800781 124.453125 -64.96875 C 114.421875 -60.132812 102.515625 -57.71875 88.734375 -57.71875 L 82.25 -57.875 C 78.132812 -58.070312 75.253906 -58.171875 73.609375 -58.171875 C 69.703125 -58.171875 66.640625 -57.113281 64.421875 -55 C 62.210938 -52.894531 61.109375 -50.195312 61.109375 -46.90625 C 61.109375 -43.3125 62.546875 -40.507812 65.421875 -38.5 C 68.304688 -36.5 72.523438 -35.394531 78.078125 -35.1875 L 116.203125 -33.796875 C 153.859375 -32.660156 172.6875 -16.457031 172.6875 14.8125 C 172.6875 25.820312 169.878906 35.617188 164.265625 44.203125 C 158.660156 52.796875 149.582031 59.613281 137.03125 64.65625 C 124.476562 69.695312 108.222656 72.21875 88.265625 72.21875 Z M 88.734375 -87.65625 C 96.960938 -87.65625 103.390625 -90.070312 108.015625 -94.90625 C 112.648438 -99.738281 114.96875 -106.628906 114.96875 -115.578125 C 114.96875 -124.535156 112.648438 -131.40625 108.015625 -136.1875 C 103.390625 -140.96875 96.960938 -143.359375 88.734375 -143.359375 C 80.398438 -143.359375 73.96875 -140.96875 69.4375 -136.1875 C 64.914062 -131.40625 62.65625 -124.535156 62.65625 -115.578125 C 62.65625 -106.523438 64.914062 -99.609375 69.4375 -94.828125 C 73.96875 -90.046875 80.398438 -87.65625 88.734375 -87.65625 Z M 88.265625 41.203125 C 102.878906 41.203125 113.503906 39.144531 120.140625 35.03125 C 126.773438 30.914062 130.09375 25.566406 130.09375 18.984375 C 130.09375 13.628906 128.394531 9.691406 125 7.171875 C 121.601562 4.648438 116.203125 3.289062 108.796875 3.09375 L 75.15625 1.546875 C 74.019531 1.546875 72.960938 1.492188 71.984375 1.390625 C 71.015625 1.285156 70.066406 1.234375 69.140625 1.234375 C 61.929688 1.234375 56.445312 2.773438 52.6875 5.859375 C 48.9375 8.953125 47.0625 13.222656 47.0625 18.671875 C 47.0625 25.867188 50.507812 31.421875 57.40625 35.328125 C 64.300781 39.242188 74.585938 41.203125 88.265625 41.203125 Z M 88.265625 41.203125 "/></g></g></g><g fill="#000000" fill-opacity="1"><g transform="translate(967.89996, 829.936062)"><g><path d="M 45.828125 -190.578125 C 38.117188 -190.578125 31.84375 -192.914062 27 -197.59375 C 22.164062 -202.28125 19.75 -208.328125 19.75 -215.734375 C 19.75 -223.046875 22.164062 -229.039062 27 -233.71875 C 31.84375 -238.394531 38.117188 -240.734375 45.828125 -240.734375 C 50.972656 -240.734375 55.550781 -239.648438 59.5625 -237.484375 C 63.570312 -235.328125 66.679688 -232.367188 68.890625 -228.609375 C 71.109375 -224.859375 72.21875 -220.566406 72.21875 -215.734375 C 72.21875 -210.898438 71.109375 -206.578125 68.890625 -202.765625 C 66.679688 -198.960938 63.570312 -195.976562 59.5625 -193.8125 C 55.550781 -191.65625 50.972656 -190.578125 45.828125 -190.578125 Z M 24.53125 0 L 24.53125 -170.21875 L 67.28125 -170.21875 L 67.28125 0 Z M 24.53125 0 "/></g></g></g><g fill="#000000" fill-opacity="1"><g transform="translate(1059.585323, 829.936062)"><g/></g></g><g fill="#000000" fill-opacity="1"><g transform="translate(1134.122105, 829.936062)"><g/></g></g><g fill="#000000" fill-opacity="1"><g transform="translate(1208.658887, 829.936062)"><g/></g></g><g fill="#000000" fill-opacity="1"><g transform="translate(1283.195669, 829.936062)"><g/></g></g><g fill="#000000" fill-opacity="1"><g transform="translate(1357.732452, 829.936062)"><g/></g></g><g fill="#000000" fill-opacity="1"><g transform="translate(1432.270081, 829.936062)"><g><path d="M 100 3.234375 C 84.363281 3.234375 70.445312 1.304688 58.25 -2.546875 C 46.0625 -6.398438 35.90625 -11.460938 27.78125 -17.734375 C 19.65625 -24.015625 13.429688 -30.910156 9.109375 -38.421875 L 33.640625 -68.359375 L 37.5 -68.359375 C 44.289062 -58.273438 52.90625 -50.25 63.34375 -44.28125 C 73.789062 -38.320312 86.007812 -35.34375 100 -35.34375 C 111.9375 -35.34375 120.9375 -37.863281 127 -42.90625 C 133.070312 -47.945312 136.109375 -54.890625 136.109375 -63.734375 C 136.109375 -69.085938 135.128906 -73.5625 133.171875 -77.15625 C 131.222656 -80.757812 127.984375 -83.847656 123.453125 -86.421875 C 118.929688 -88.992188 112.8125 -91.207031 105.09375 -93.0625 L 76.078125 -99.6875 C 55.804688 -104.320312 40.707031 -112.015625 30.78125 -122.765625 C 20.851562 -133.515625 15.890625 -147.476562 15.890625 -164.65625 C 15.890625 -177.414062 19.078125 -188.628906 25.453125 -198.296875 C 31.835938 -207.972656 41.125 -215.484375 53.3125 -220.828125 C 65.507812 -226.179688 80.09375 -228.859375 97.0625 -228.859375 C 114.445312 -228.859375 129.335938 -226.566406 141.734375 -221.984375 C 154.140625 -217.410156 164.609375 -210.390625 173.140625 -200.921875 L 151.078125 -170.671875 L 147.21875 -170.671875 C 140.84375 -177.359375 133.539062 -182.375 125.3125 -185.71875 C 117.082031 -189.0625 107.664062 -190.734375 97.0625 -190.734375 C 84.820312 -190.734375 75.507812 -188.570312 69.125 -184.25 C 62.75 -179.9375 59.5625 -173.972656 59.5625 -166.359375 C 59.5625 -159.253906 61.800781 -153.59375 66.28125 -149.375 C 70.757812 -145.15625 78.5 -141.863281 89.5 -139.5 L 119.140625 -133.328125 C 141.046875 -128.703125 156.9375 -120.859375 166.8125 -109.796875 C 176.695312 -98.734375 181.640625 -84.304688 181.640625 -66.515625 C 181.640625 -52.421875 178.601562 -40.148438 172.53125 -29.703125 C 166.457031 -19.265625 157.300781 -11.164062 145.0625 -5.40625 C 132.820312 0.351562 117.800781 3.234375 100 3.234375 Z M 100 3.234375 "/></g></g></g><g clip-path="url(#0e50871104)"><path fill="#000000" d="M 1293.53125 828.054688 C 1279.746094 823.378906 1262.28125 825.074219 1260.472656 837.160156 C 1274.574219 838.65625 1289.796875 843.332031 1304.273438 841.710938 C 1308.976562 834.367188 1299.671875 830.136719 1293.53125 828.054688 Z M 1416.671875 806.535156 C 1412.984375 813.328125 1408.363281 819.179688 1401.796875 823.089844 C 1411.464844 822.703125 1420.519531 821.703125 1428.65625 819.777344 C 1429.324219 818.242188 1429 815.707031 1429.066406 813.570312 C 1426.601562 809.515625 1422.125 806.351562 1416.671875 806.535156 Z M 1379.894531 827.226562 C 1386.761719 824.757812 1394.386719 822.792969 1400.144531 819.777344 C 1407.847656 815.746094 1414.71875 805.085938 1416.671875 796.191406 C 1418.632812 787.253906 1415.492188 779.167969 1413.777344 771.363281 C 1410.65625 757.125 1402.835938 744.40625 1392.703125 738.257812 C 1373.207031 726.425781 1336.871094 736.277344 1325.347656 749.429688 C 1321.179688 754.191406 1319.144531 761.644531 1317.085938 767.636719 C 1313.066406 779.332031 1309.070312 791.902344 1306.339844 806.121094 C 1305.574219 810.117188 1301.625 823.378906 1302.621094 827.226562 C 1303.664062 831.242188 1310.921875 831.464844 1309.648438 838.8125 C 1335.292969 837.777344 1359.925781 834.402344 1379.894531 827.226562 Z M 1384.441406 629.011719 C 1378.113281 620.898438 1368.949219 613.617188 1360.886719 607.078125 C 1357.988281 604.726562 1355.339844 601.59375 1352.621094 600.042969 C 1342.953125 594.535156 1327.277344 590.515625 1312.539062 589.699219 C 1297.355469 588.855469 1281.777344 591.382812 1269.976562 594.25 C 1260.207031 596.625 1250.742188 598.933594 1242.703125 603.765625 C 1225.496094 614.121094 1212.121094 629.734375 1202.621094 648.046875 C 1191.453125 669.574219 1187.597656 695.199219 1185.679688 725.015625 C 1184.546875 742.648438 1188.265625 768.503906 1183.199219 783.777344 C 1182.007812 787.375 1179.609375 791.03125 1179.480469 795.363281 C 1179.128906 807.238281 1185.402344 814.632812 1193.117188 820.191406 C 1213.234375 826.394531 1234.28125 831.664062 1256.339844 835.917969 C 1259.148438 830.433594 1261.773438 826.242188 1267.496094 823.503906 C 1273.007812 820.867188 1278.101562 821.808594 1284.027344 822.675781 C 1291.074219 823.703125 1295.746094 824.175781 1300.140625 826.8125 C 1300.484375 813.085938 1304.179688 799.515625 1307.582031 786.671875 C 1310.855469 774.304688 1313.894531 760.738281 1319.5625 751.085938 C 1327.054688 738.328125 1350.777344 729.136719 1369.976562 728.738281 C 1383.675781 728.457031 1396.273438 734.902344 1403.035156 741.980469 C 1410.914062 750.230469 1416.644531 761.890625 1419.152344 775.5 C 1416.007812 717.75 1411.0625 663.148438 1384.441406 629.011719 Z M 1420.804688 800.742188 C 1425.410156 803.863281 1431.929688 806.171875 1433.613281 811.914062 C 1437.71875 825.914062 1424.871094 826.363281 1412.953125 827.640625 C 1405.355469 828.453125 1397.078125 827.171875 1391.464844 828.054688 C 1388.609375 828.503906 1385.789062 830.636719 1382.789062 831.777344 C 1368.734375 837.128906 1350.585938 840.582031 1333.613281 842.539062 C 1326.265625 843.386719 1318.214844 842.476562 1310.886719 843.78125 C 1307.132812 844.445312 1306.429688 846.96875 1303.035156 847.503906 C 1296.308594 848.566406 1289.5625 846.480469 1281.960938 845.847656 C 1274.816406 845.253906 1267.988281 844.519531 1261.710938 843.367188 C 1259.117188 842.886719 1256.203125 841.308594 1253.035156 840.46875 C 1237.503906 836.34375 1221.183594 834.09375 1206.753906 828.882812 C 1196.507812 825.183594 1185.335938 821.988281 1179.894531 813.984375 C 1176.832031 809.480469 1174.226562 800.554688 1174.523438 794.535156 C 1174.945312 785.898438 1179.972656 780.273438 1180.722656 770.535156 C 1181.710938 757.652344 1180.308594 744.675781 1180.308594 732.464844 C 1180.308594 720.175781 1181.570312 708.050781 1182.789062 696.875 C 1185 676.542969 1191.683594 654.371094 1201.796875 639.355469 C 1210.195312 626.882812 1216.578125 617.40625 1228.242188 608.320312 C 1231.632812 605.675781 1235.332031 602.410156 1238.984375 600.042969 C 1255.277344 589.492188 1275.324219 588.066406 1300.554688 585.144531 C 1319.789062 582.921875 1342.71875 588.4375 1355.101562 595.492188 C 1358.320312 597.324219 1360.890625 600.953125 1364.191406 603.765625 C 1373.515625 611.71875 1383.769531 619 1391.050781 629.011719 C 1400.792969 642.402344 1407.472656 659.773438 1412.125 677.425781 C 1414.503906 686.449219 1416.945312 695.5625 1418.738281 705.566406 C 1420.511719 715.46875 1420.652344 726.5 1421.628906 737.429688 C 1423.496094 758.269531 1426.5 780.574219 1420.804688 800.742188 " fill-opacity="1" fill-rule="evenodd"/></g><path fill="#696c7f" d="M 1191.050781 797.847656 C 1189.855469 794.214844 1189.789062 789.457031 1188.160156 786.257812 C 1187.246094 790.394531 1188.777344 795.535156 1191.050781 797.847656 Z M 1193.945312 791.226562 C 1195.664062 789.519531 1193.679688 785.054688 1191.464844 784.605469 C 1191.847656 787.257812 1191.8125 790.328125 1193.945312 791.226562 Z M 1215.84375 772.191406 C 1213.507812 769.890625 1211.078125 768.175781 1209.644531 764.742188 C 1206.25 756.59375 1209.65625 744.820312 1208.820312 737.015625 C 1205.636719 739.328125 1205.019531 745.699219 1204.6875 750.671875 C 1203.902344 762.394531 1207.738281 772.488281 1214.191406 775.5 C 1235.671875 785.523438 1247.808594 754.421875 1238.570312 735.359375 C 1238.042969 735.339844 1238 734.832031 1237.332031 734.945312 C 1239.410156 753.304688 1237.230469 777.382812 1215.84375 772.191406 Z M 1202.621094 747.773438 C 1203.429688 743.453125 1206.425781 737 1204.273438 732.464844 C 1204.078125 737.648438 1202.160156 743.3125 1202.621094 747.773438 Z M 1341.878906 667.082031 C 1340.460938 668.339844 1338.085938 672.117188 1338.984375 674.117188 C 1340.507812 677.5 1351.847656 677.851562 1355.925781 677.839844 C 1364.390625 677.820312 1376.355469 676.921875 1376.175781 670.390625 C 1375.984375 663.460938 1362.011719 662.574219 1354.6875 663.355469 C 1349.214844 663.945312 1344.050781 665.152344 1341.878906 667.082031 Z M 1301.382812 665.425781 C 1301.992188 671.148438 1314.621094 669.371094 1313.367188 663.769531 C 1312.867188 661.546875 1310.125 661.078125 1307.167969 661.289062 C 1303.710938 661.535156 1301.019531 662.011719 1301.382812 665.425781 Z M 1380.308594 661.289062 C 1381.488281 664.769531 1391.957031 664.09375 1391.878906 659.21875 C 1391.832031 656.46875 1389.160156 655.722656 1386.09375 655.910156 C 1382.851562 656.101562 1378.878906 657.078125 1380.308594 661.289062 Z M 1419.148438 775.5 C 1416.640625 761.890625 1410.914062 750.230469 1403.035156 741.980469 C 1396.273438 734.902344 1383.675781 728.457031 1369.976562 728.738281 C 1350.777344 729.136719 1327.054688 738.328125 1319.5625 751.085938 C 1313.894531 760.738281 1310.855469 774.304688 1307.578125 786.671875 C 1304.179688 799.515625 1300.484375 813.085938 1300.140625 826.8125 C 1295.746094 824.175781 1291.074219 823.703125 1284.027344 822.675781 C 1278.101562 821.808594 1273.007812 820.867188 1267.496094 823.503906 C 1261.773438 826.242188 1259.148438 830.433594 1256.339844 835.917969 C 1234.28125 831.664062 1213.234375 826.394531 1193.117188 820.191406 C 1185.402344 814.632812 1179.128906 807.238281 1179.480469 795.363281 C 1179.609375 791.03125 1182.007812 787.375 1183.199219 783.777344 C 1188.265625 768.503906 1184.546875 742.648438 1185.679688 725.015625 C 1187.597656 695.203125 1191.453125 669.574219 1202.621094 648.046875 C 1212.121094 629.734375 1225.496094 614.125 1242.703125 603.769531 C 1250.738281 598.933594 1260.207031 596.625 1269.976562 594.25 C 1281.777344 591.382812 1297.355469 588.855469 1312.539062 589.699219 C 1327.277344 590.515625 1342.953125 594.535156 1352.621094 600.042969 C 1355.339844 601.59375 1357.988281 604.726562 1360.886719 607.078125 C 1368.945312 613.617188 1378.113281 620.898438 1384.4375 629.011719 C 1411.0625 663.148438 1416.007812 717.75 1419.148438 775.5 " fill-opacity="1" fill-rule="evenodd"/><path fill="#000000" d="M 1386.09375 655.90625 C 1389.160156 655.722656 1391.832031 656.46875 1391.878906 659.21875 C 1391.957031 664.09375 1381.488281 664.769531 1380.308594 661.289062 C 1378.882812 657.078125 1382.851562 656.101562 1386.09375 655.90625 " fill-opacity="1" fill-rule="evenodd"/><path fill="#000000" d="M 1307.167969 661.289062 C 1310.128906 661.074219 1312.867188 661.546875 1313.367188 663.769531 C 1314.621094 669.371094 1301.992188 671.144531 1301.382812 665.425781 C 1301.019531 662.007812 1303.710938 661.535156 1307.167969 661.289062 " fill-opacity="1" fill-rule="evenodd"/><path fill="#000000" d="M 1342.292969 673.289062 C 1351.863281 674.058594 1367.003906 676.511719 1372.871094 670.390625 C 1366.8125 664.378906 1343.765625 665.027344 1342.292969 673.289062 Z M 1354.6875 663.355469 C 1362.011719 662.574219 1375.984375 663.460938 1376.175781 670.390625 C 1376.355469 676.921875 1364.390625 677.820312 1355.925781 677.839844 C 1351.847656 677.851562 1340.507812 677.496094 1338.984375 674.117188 C 1338.085938 672.117188 1340.460938 668.339844 1341.878906 667.082031 C 1344.050781 665.152344 1349.214844 663.941406 1354.6875 663.355469 " fill-opacity="1" fill-rule="evenodd"/><path fill="#ffe000" d="M 1372.867188 670.390625 C 1367.003906 676.511719 1351.863281 674.058594 1342.292969 673.289062 C 1343.765625 665.027344 1366.8125 664.378906 1372.867188 670.390625 " fill-opacity="1" fill-rule="evenodd"/><path fill="#34384c" d="M 1204.273438 732.464844 C 1206.425781 737 1203.429688 743.453125 1202.621094 747.773438 C 1202.160156 743.308594 1204.078125 737.648438 1204.273438 732.464844 " fill-opacity="1" fill-rule="evenodd"/><path fill="#bcd2e8" d="M 1309.644531 838.8125 C 1310.921875 831.464844 1303.664062 831.246094 1302.621094 827.226562 C 1301.625 823.378906 1305.574219 810.117188 1306.339844 806.121094 C 1309.070312 791.902344 1313.066406 779.332031 1317.085938 767.636719 C 1319.144531 761.644531 1321.179688 754.191406 1325.351562 749.429688 C 1336.871094 736.277344 1373.207031 726.425781 1392.703125 738.257812 C 1402.835938 744.40625 1410.65625 757.128906 1413.777344 771.363281 C 1415.492188 779.167969 1418.632812 787.253906 1416.671875 796.191406 C 1414.71875 805.085938 1407.847656 815.746094 1400.144531 819.777344 C 1394.386719 822.792969 1386.761719 824.757812 1379.894531 827.226562 C 1359.925781 834.402344 1335.292969 837.777344 1309.644531 838.8125 " fill-opacity="1" fill-rule="evenodd"/><path fill="#000000" d="M 1237.332031 734.945312 C 1238 734.832031 1238.042969 735.339844 1238.570312 735.359375 C 1247.808594 754.421875 1235.671875 785.523438 1214.191406 775.5 C 1207.738281 772.488281 1203.902344 762.390625 1204.6875 750.671875 C 1205.019531 745.699219 1205.636719 739.328125 1208.820312 737.015625 C 1209.65625 744.820312 1206.253906 756.59375 1209.644531 764.742188 C 1211.078125 768.175781 1213.507812 769.890625 1215.84375 772.191406 C 1237.230469 777.382812 1239.410156 753.304688 1237.332031 734.945312 " fill-opacity="1" fill-rule="evenodd"/><path fill="#34384c" d="M 1191.464844 784.605469 C 1193.679688 785.054688 1195.664062 789.519531 1193.945312 791.226562 C 1191.8125 790.328125 1191.847656 787.257812 1191.464844 784.605469 " fill-opacity="1" fill-rule="evenodd"/><path fill="#34384c" d="M 1188.160156 786.257812 C 1189.789062 789.457031 1189.855469 794.214844 1191.050781 797.847656 C 1188.777344 795.535156 1187.246094 790.394531 1188.160156 786.257812 " fill-opacity="1" fill-rule="evenodd"/><path fill="#ffe000" d="M 1429.066406 813.570312 C 1428.996094 815.707031 1429.324219 818.242188 1428.65625 819.777344 C 1420.519531 821.703125 1411.464844 822.703125 1401.796875 823.089844 C 1408.363281 819.179688 1412.984375 813.328125 1416.671875 806.535156 C 1422.125 806.351562 1426.601562 809.515625 1429.066406 813.570312 " fill-opacity="1" fill-rule="evenodd"/><path fill="#ffe000" d="M 1304.273438 841.710938 C 1289.796875 843.332031 1274.574219 838.65625 1260.472656 837.160156 C 1262.28125 825.074219 1279.746094 823.378906 1293.53125 828.054688 C 1299.671875 830.136719 1308.976562 834.367188 1304.273438 841.710938 " fill-opacity="1" fill-rule="evenodd"/><g fill="#000000" fill-opacity="1"><g transform="translate(1833.690996, 862.857022)"><g><path d="M 139.796875 -285.453125 C 186.128906 -285.453125 221.5 -273.472656 245.90625 -249.515625 C 270.3125 -225.566406 282.515625 -189.96875 282.515625 -142.71875 C 282.515625 -95.601562 270.3125 -60.035156 245.90625 -36.015625 C 221.5 -12.003906 186.128906 0 139.796875 0 L 37.09375 0 L 37.09375 -285.453125 Z M 136.46875 -47.4375 C 165.882812 -47.4375 187.878906 -54.953125 202.453125 -69.984375 C 217.035156 -85.023438 224.328125 -109.269531 224.328125 -142.71875 C 224.328125 -176.175781 217.035156 -200.421875 202.453125 -215.453125 C 187.878906 -230.484375 165.882812 -238 136.46875 -238 L 93.515625 -238 L 93.515625 -47.4375 Z M 136.46875 -47.4375 "/></g></g><g transform="translate(2138.854873, 862.857022)"><g><path d="M 125.15625 4.09375 C 104.0625 4.09375 85.539062 -0.234375 69.59375 -8.890625 C 53.65625 -17.546875 41.289062 -30.234375 32.5 -46.953125 C 23.71875 -63.679688 19.328125 -83.890625 19.328125 -107.578125 C 19.328125 -131.265625 23.71875 -151.503906 32.5 -168.296875 C 41.289062 -185.085938 53.65625 -197.8125 69.59375 -206.46875 C 85.539062 -215.125 104.0625 -219.453125 125.15625 -219.453125 C 146.238281 -219.453125 164.75 -215.125 180.6875 -206.46875 C 196.632812 -197.8125 209.035156 -185.085938 217.890625 -168.296875 C 226.742188 -151.503906 231.171875 -131.265625 231.171875 -107.578125 C 231.171875 -83.890625 226.742188 -63.679688 217.890625 -46.953125 C 209.035156 -30.234375 196.632812 -17.546875 180.6875 -8.890625 C 164.75 -0.234375 146.238281 4.09375 125.15625 4.09375 Z M 125.15625 -41.78125 C 158.601562 -41.78125 175.328125 -63.710938 175.328125 -107.578125 C 175.328125 -130.359375 171.03125 -147.050781 162.4375 -157.65625 C 153.851562 -168.269531 141.425781 -173.578125 125.15625 -173.578125 C 91.695312 -173.578125 74.96875 -151.578125 74.96875 -107.578125 C 74.96875 -63.710938 91.695312 -41.78125 125.15625 -41.78125 Z M 125.15625 -41.78125 "/></g></g><g transform="translate(2389.155635, 862.857022)"><g><path d="M 125.546875 4.09375 C 104.710938 4.09375 86.289062 -0.234375 70.28125 -8.890625 C 54.269531 -17.546875 41.773438 -30.265625 32.796875 -47.046875 C 23.816406 -63.835938 19.328125 -84.015625 19.328125 -107.578125 C 19.328125 -131.265625 23.816406 -151.503906 32.796875 -168.296875 C 41.773438 -185.085938 54.203125 -197.8125 70.078125 -206.46875 C 85.960938 -215.125 104.125 -219.453125 124.5625 -219.453125 C 169.988281 -219.453125 199.082031 -202.988281 211.84375 -170.0625 L 174.75 -143.5 L 170.640625 -143.5 C 166.210938 -153.65625 160.453125 -161.207031 153.359375 -166.15625 C 146.265625 -171.101562 136.664062 -173.578125 124.5625 -173.578125 C 108.945312 -173.578125 96.773438 -168.171875 88.046875 -157.359375 C 79.328125 -146.554688 74.96875 -129.960938 74.96875 -107.578125 C 74.96875 -85.453125 79.394531 -68.953125 88.25 -58.078125 C 97.101562 -47.210938 109.535156 -41.78125 125.546875 -41.78125 C 137.253906 -41.78125 147.175781 -44.9375 155.3125 -51.25 C 163.445312 -57.5625 169.273438 -66.640625 172.796875 -78.484375 L 176.890625 -78.875 L 215.359375 -57.796875 C 209.890625 -39.566406 199.765625 -24.691406 184.984375 -13.171875 C 170.210938 -1.660156 150.398438 4.09375 125.546875 4.09375 Z M 125.546875 4.09375 "/></g></g><g transform="translate(2611.146249, 862.857022)"><g><path d="M 100.75 4.09375 C 86.039062 4.09375 72.566406 2.367188 60.328125 -1.078125 C 48.097656 -4.523438 37.65625 -9.273438 29 -15.328125 C 20.34375 -21.378906 13.929688 -28.3125 9.765625 -36.125 L 39.828125 -68.53125 L 43.9375 -68.53125 C 51.09375 -58.894531 59.550781 -51.671875 69.3125 -46.859375 C 79.070312 -42.046875 89.679688 -39.640625 101.140625 -39.640625 C 111.679688 -39.640625 119.617188 -41.523438 124.953125 -45.296875 C 130.296875 -49.066406 132.96875 -54.46875 132.96875 -61.5 C 132.96875 -66.96875 131.046875 -71.554688 127.203125 -75.265625 C 123.359375 -78.972656 117.144531 -81.867188 108.5625 -83.953125 L 80.046875 -90.78125 C 58.703125 -95.863281 43.113281 -103.644531 33.28125 -114.125 C 23.457031 -124.601562 18.546875 -137.910156 18.546875 -154.046875 C 18.546875 -167.453125 21.960938 -179.097656 28.796875 -188.984375 C 35.628906 -198.878906 45.257812 -206.429688 57.6875 -211.640625 C 70.125 -216.847656 84.609375 -219.453125 101.140625 -219.453125 C 120.535156 -219.453125 136.609375 -216.648438 149.359375 -211.046875 C 162.117188 -205.453125 172.078125 -197.972656 179.234375 -188.609375 L 150.34375 -157.359375 L 146.4375 -157.359375 C 140.445312 -164.128906 133.707031 -169.078125 126.21875 -172.203125 C 118.738281 -175.328125 110.378906 -176.890625 101.140625 -176.890625 C 79.785156 -176.890625 69.109375 -170.25 69.109375 -156.96875 C 69.109375 -151.375 71.09375 -146.816406 75.0625 -143.296875 C 79.039062 -139.785156 86.039062 -136.925781 96.0625 -134.71875 L 122.609375 -128.859375 C 144.484375 -124.171875 160.460938 -116.648438 170.546875 -106.296875 C 180.628906 -95.953125 185.671875 -82.0625 185.671875 -64.625 C 185.671875 -50.957031 182.285156 -38.914062 175.515625 -28.5 C 168.753906 -18.09375 158.992188 -10.054688 146.234375 -4.390625 C 133.484375 1.265625 118.320312 4.09375 100.75 4.09375 Z M 100.75 4.09375 "/></g></g></g></svg>